<?xml version="1.0" standalone="no"?>
<!DOCTYPE svg PUBLIC "-//W3C//DTD SVG 20010904//EN"
 "http://www.w3.org/TR/2001/REC-SVG-20010904/DTD/svg10.dtd">
<svg version="1.0" xmlns="http://www.w3.org/2000/svg"
 width="512.000000pt" height="512.000000pt" viewBox="0 0 512.000000 512.000000"
 preserveAspectRatio="xMidYMid meet">

<g transform="translate(0.000000,512.000000) scale(0.100000,-0.100000)"
fill="#000000" stroke="none">
<path d="M909 4033 l-24 -28 28 24 c25 23 32 31 24 31 -2 0 -14 -12 -28 -27z"/>
<path d="M1345 3935 c18 -52 19 -117 1 -160 -14 -33 -36 -48 -36 -24 0 26 -58
-3 -115 -56 -51 -48 -57 -59 -48 -75 16 -24 8 -30 -46 -31 -40 0 -43 -2 -22
-10 26 -10 116 2 152 21 39 21 100 83 119 121 38 74 38 185 0 231 -19 23 -19
23 -5 -17z"/>
<path d="M4212 3384 c-7 -8 -8 -14 -3 -14 10 0 25 19 20 25 -2 1 -10 -3 -17
-11z"/>
<path d="M909 3173 l-34 -38 38 34 c34 33 42 41 34 41 -2 0 -19 -17 -38 -37z"/>
<path d="M1289 3156 c36 -42 61 -94 61 -124 0 -15 -48 -62 -63 -62 -3 0 -52
-46 -111 -102 -99 -95 -105 -103 -90 -119 9 -10 26 -20 38 -23 11 -3 -7 -3
-42 -1 -70 5 -110 22 -163 69 -19 17 -14 11 11 -14 125 -122 338 -84 423 75
32 60 30 164 -5 230 -14 28 -41 64 -59 80 l-33 30 33 -39z"/>
<path d="M4220 2548 c0 -9 -6 -19 -12 -21 -10 -4 -10 -6 0 -6 14 -1 28 26 18
36 -3 4 -6 -1 -6 -9z"/>
<path d="M1361 2130 c-1 -75 -31 -148 -77 -192 -16 -15 -58 -40 -94 -57 -71
-33 -62 -41 15 -14 98 33 176 144 174 247 -1 74 -18 88 -18 16z"/>
<path d="M4217 1690 c-3 -11 -1 -20 4 -20 5 0 9 9 9 20 0 11 -2 20 -4 20 -2 0
-6 -9 -9 -20z"/>
<path d="M3433 1663 c9 -2 23 -2 30 0 6 3 -1 5 -18 5 -16 0 -22 -2 -12 -5z"/>
<path d="M3658 1663 c101 -2 263 -2 360 0 97 1 15 2 -183 2 -198 0 -278 -1
-177 -2z"/>
<path d="M974 1504 c-18 -14 -18 -14 6 -3 31 14 36 19 24 19 -6 0 -19 -7 -30
-16z"/>
<path d="M1220 1490 c40 -21 100 -80 82 -80 -7 0 -12 -11 -12 -23 0 -13 -12
-37 -26 -53 -14 -16 -39 -48 -57 -72 -37 -51 -138 -121 -176 -123 -25 -2 -78
-6 -94 -8 -13 -2 -4 -54 13 -75 13 -17 10 -17 -20 3 l-35 23 30 -27 c108 -97
277 -92 380 10 95 96 101 234 14 357 -22 30 -104 88 -123 88 -6 -1 5 -9 24
-20z"/>
<path d="M913 1458 c-36 -40 -63 -79 -63 -93 0 -5 10 6 21 25 12 19 35 50 52
68 17 17 29 32 26 32 -3 0 -19 -15 -36 -32z"/>
<path d="M833 1270 c0 -30 2 -43 4 -27 2 15 2 39 0 55 -2 15 -4 2 -4 -28z"/>
<path d="M870 1116 c0 -2 8 -10 18 -17 15 -13 16 -12 3 4 -13 16 -21 21 -21
13z"/>
<path d="M4216 835 c-5 -13 -76 -15 -533 -18 l-528 -2 538 -3 c531 -2 537 -2
537 18 0 24 -6 26 -14 5z"/>
<path d="M3128 813 c7 -3 16 -2 19 1 4 3 -2 6 -13 5 -11 0 -14 -3 -6 -6z"/>
</g>
</svg>
