<?xml version="1.0" standalone="no"?>
<!DOCTYPE svg PUBLIC "-//W3C//DTD SVG 20010904//EN"
 "http://www.w3.org/TR/2001/REC-SVG-20010904/DTD/svg10.dtd">
<svg version="1.0" xmlns="http://www.w3.org/2000/svg"
 width="24.000000pt" height="24.000000pt" viewBox="0 0 24.000000 24.000000"
 preserveAspectRatio="xMidYMid meet">

<g transform="translate(0.000000,24.000000) scale(0.100000,-0.100000)"
fill="#000000" stroke="none">
<path d="M95 221 c-6 -5 -21 -11 -35 -13 -24 -3 -25 -5 -25 -88 l0 -85 43 -3
c38 -3 42 -1 42 21 0 29 39 67 69 67 20 0 22 4 19 43 -3 36 -6 42 -28 45 -14
2 -29 8 -34 13 -6 5 -17 9 -26 9 -9 0 -20 -4 -25 -9z m35 -21 c0 -5 -4 -10
-10 -10 -5 0 -10 5 -10 10 0 6 5 10 10 10 6 0 10 -4 10 -10z m40 -50 c0 -5
-22 -10 -50 -10 -27 0 -50 5 -50 10 0 6 23 10 50 10 28 0 50 -4 50 -10z m-50
-40 c0 -5 -11 -10 -25 -10 -14 0 -25 5 -25 10 0 6 11 10 25 10 14 0 25 -4 25
-10z"/>
<path d="M156 84 c-31 -30 -9 -84 34 -84 24 0 50 26 50 50 0 24 -26 50 -50 50
-10 0 -26 -7 -34 -16z m58 -35 c0 -18 -5 -23 -24 -23 -19 0 -24 5 -23 22 1 30
0 29 25 27 17 -1 22 -8 22 -26z"/>
</g>
</svg>
